<svg id="Layer_1" data-name="Layer 1" xmlns="http://www.w3.org/2000/svg" viewBox="0 0 500 500"><defs><style>.cls-1{fill:#00d4d4;}</style></defs><polygon class="cls-1" points="157.51 239.99 116.15 237.27 183.98 215.96 152.55 284.71 157.51 239.99"/><path class="cls-1" d="M204.81,258.79h22.57v4.48H200V223.86h4.78Z"/><path class="cls-1" d="M247.5,244a7,7,0,0,0-1.79-5.16,6.76,6.76,0,0,0-5.07-1.83,9.73,9.73,0,0,0-5.26,1.35,7.8,7.8,0,0,0-3.16,4.33l-3.88-2.39a10.44,10.44,0,0,1,4.41-5.4,14.54,14.54,0,0,1,8-2.07,14.88,14.88,0,0,1,5.85,1.11,9.27,9.27,0,0,1,4.15,3.34,10,10,0,0,1,1.52,5.77v14.45c0,1.43.76,2.15,2.27,2.15a8.18,8.18,0,0,0,2.21-.3l-.24,3.76a6.9,6.9,0,0,1-3.1.6,7.1,7.1,0,0,1-3.11-.66,4.88,4.88,0,0,1-2.15-2,6.62,6.62,0,0,1-.77-3.37v-.6l1.19.18a7.83,7.83,0,0,1-2.45,3.79,11.22,11.22,0,0,1-3.88,2.15,13.82,13.82,0,0,1-4.24.69,13.21,13.21,0,0,1-4.9-.9,8,8,0,0,1-3.61-2.72,8.06,8.06,0,0,1,.9-10,11.92,11.92,0,0,1,6.24-2.95l11.82-2.33v3.94l-9.61,2a10.94,10.94,0,0,0-4.36,1.67,3.52,3.52,0,0,0-1.44,3,3.66,3.66,0,0,0,1.47,3,6.49,6.49,0,0,0,4.15,1.17,12,12,0,0,0,3.31-.45,8.91,8.91,0,0,0,2.84-1.37,6.73,6.73,0,0,0,2-2.33,7.19,7.19,0,0,0,.71-3.32Z"/><path class="cls-1" d="M259.09,263.27V233.41h4.18l.42,6.69-.78-.66a10.37,10.37,0,0,1,2.57-3.85,9.88,9.88,0,0,1,3.73-2.12,14.68,14.68,0,0,1,4.39-.66,13.62,13.62,0,0,1,5.85,1.23,9.73,9.73,0,0,1,4.21,3.73,11.73,11.73,0,0,1,1.59,6.39v19.11h-4.78V245.83q0-5-2.12-6.89a7.44,7.44,0,0,0-5.23-1.95,10,10,0,0,0-4.3,1,8.43,8.43,0,0,0-3.55,3.28,11.5,11.5,0,0,0-1.4,6.1v15.88Z"/><path class="cls-1" d="M303.64,232.81a14.39,14.39,0,0,1,5.46,1,11.62,11.62,0,0,1,4.09,2.75,14.13,14.13,0,0,1,2.81,4.24l-4.54,2.15a9,9,0,0,0-2.89-4.39,7.93,7.93,0,0,0-5.05-1.53,9.49,9.49,0,0,0-5.14,1.35,8.56,8.56,0,0,0-3.28,3.88,16.92,16.92,0,0,0,0,12.21,8.53,8.53,0,0,0,3.28,3.91,9.49,9.49,0,0,0,5.14,1.35,10.29,10.29,0,0,0,4-.72,7,7,0,0,0,2.81-2.09,8,8,0,0,0,1.52-3.34l4.42,1.55a14.62,14.62,0,0,1-2.78,4.72,11.65,11.65,0,0,1-4.24,3,14.32,14.32,0,0,1-5.64,1.05,15,15,0,0,1-7.47-1.85,12.92,12.92,0,0,1-5.13-5.35A19.68,19.68,0,0,1,291,240a12.84,12.84,0,0,1,5.13-5.34A14.89,14.89,0,0,1,303.64,232.81Z"/><path class="cls-1" d="M332.42,263.87a15.27,15.27,0,0,1-7.55-1.85,13,13,0,0,1-5.17-5.35,19.68,19.68,0,0,1,0-16.66,13,13,0,0,1,5.08-5.34,14.43,14.43,0,0,1,7.34-1.86,13.47,13.47,0,0,1,7.14,1.8,11.81,11.81,0,0,1,4.51,4.86,15.16,15.16,0,0,1,1.55,6.9c0,.68,0,1.29-.06,1.85a13.53,13.53,0,0,1-.18,1.49H321v-4.24h22l-2.45.48a8.93,8.93,0,0,0-2.35-6.63A8.46,8.46,0,0,0,332,237a9.17,9.17,0,0,0-5,1.35,8.76,8.76,0,0,0-3.29,3.88,14.69,14.69,0,0,0-1.16,6.12,14.41,14.41,0,0,0,1.19,6.09,8.79,8.79,0,0,0,3.38,3.91,9.7,9.7,0,0,0,5.22,1.35,10.16,10.16,0,0,0,5.35-1.26A9.47,9.47,0,0,0,341,255l3.76,2.21a12.46,12.46,0,0,1-7,5.82A16.27,16.27,0,0,1,332.42,263.87Z"/><path class="cls-1" d="M349.62,263.27V233.41h3.88l.66,4.9a8.77,8.77,0,0,1,3.67-4.12,11.7,11.7,0,0,1,5.88-1.38,13.44,13.44,0,0,1,1.71.12,4.51,4.51,0,0,1,1.58.48l-.84,4.36a7.48,7.48,0,0,0-1.43-.36,15.42,15.42,0,0,0-2.21-.12,7.44,7.44,0,0,0-3.73,1.08,8.48,8.48,0,0,0-3.14,3.25,11.06,11.06,0,0,0-1.25,5.53v16.12Z"/></svg>