<svg id="Layer_1" data-name="Layer 1" xmlns="http://www.w3.org/2000/svg" viewBox="0 0 360 360"><defs><style>.cls-1{fill:#151b25;}.cls-2{fill:#b9cdef;}</style></defs><rect class="cls-1" width="360" height="360"/><path class="cls-2" d="M299.86,144.64l-10.09-.48,35.1-11.72-15.72,36.07,1.1-11.9A11,11,0,0,0,299.86,144.64Z"/><path class="cls-2" d="M42.76,187.15V157.3H35.13v29.12a13.2,13.2,0,0,0,1.41,6,13.57,13.57,0,0,0,6.16,6.23,13.36,13.36,0,0,0,6,1.4H70.35V192.4L48,192.34A6.1,6.1,0,0,1,42.76,187.15Z"/><path class="cls-2" d="M94.77,157.24l-17.89,35.1L73,200h8.54l3.91-7.63.16-.31H104l.16.31L108,200h8.55l-3.91-7.63Zm-5,26.64,5-9.85,5,9.85Z"/><polygon class="cls-2" points="154.22 184.47 126.75 163.28 119.12 157.43 119.12 200.03 126.75 200.03 126.75 172.99 154.22 194.17 161.85 200.03 161.85 157.3 154.22 157.24 154.22 184.47"/><path class="cls-2" d="M166.24,178.61A21.39,21.39,0,0,0,187.61,200H209v-7.63H187.61a13.74,13.74,0,1,1,0-27.47H209v-7.63H187.61A21.4,21.4,0,0,0,166.24,178.61Z"/><path class="cls-2" d="M214,168.78v19.65A11.52,11.52,0,0,0,225.51,200H256.7v-7.63H225.51a3.94,3.94,0,0,1-3.91-3.91v-8.05h27.47v-7.63H221.6v-4a3.94,3.94,0,0,1,3.91-3.91H256.7v-7.63H225.51A11.52,11.52,0,0,0,214,168.78Z"/><path class="cls-2" d="M290.09,180.25a10,10,0,0,0,3.29-.91,11.57,11.57,0,0,0,6.72-10.5,11.69,11.69,0,0,0-3.36-8.18,11.41,11.41,0,0,0-8.12-3.36h-27V200h7.63V180.38h7.63a7.55,7.55,0,0,1,6.47,3.66l.19.36,4.09,8,3.9,7.63h8.55l-3.91-7.63Zm-20.82-7.44v-7.88h19.35a3.84,3.84,0,0,1,2.75,1.1,4,4,0,0,1,1.16,2.81,3.88,3.88,0,0,1-2.32,3.54,3.64,3.64,0,0,1-1.59.37Z"/></svg>