<svg id="Layer_1" data-name="Layer 1" xmlns="http://www.w3.org/2000/svg" viewBox="0 0 360 360"><defs><style>.cls-1{fill:#fff;}</style></defs><rect class="cls-1" width="360" height="360"/><path d="M301,144.64l-10.09-.48L326,132.44l-15.72,36.07,1.11-11.9A11,11,0,0,0,301,144.64Z"/><path d="M43.86,187.15V157.3H36.23v29.12a13.32,13.32,0,0,0,1.4,6,13.59,13.59,0,0,0,6.17,6.23,13.32,13.32,0,0,0,6,1.4H71.45V192.4l-22.4-.06A6.09,6.09,0,0,1,43.86,187.15Z"/><path d="M95.86,157.24,78,192.34,74.07,200h8.55l3.9-7.63.16-.31H105l.16.31,3.91,7.63h8.54l-3.9-7.63Zm-5,26.64,5-9.85,5,9.85Z"/><polygon points="155.31 184.47 127.85 163.28 120.22 157.43 120.22 200.03 127.85 200.03 127.85 172.99 155.31 194.17 162.94 200.03 162.94 157.3 155.31 157.24 155.31 184.47"/><path d="M167.34,178.61A21.38,21.38,0,0,0,188.7,200h21.36v-7.63H188.7a13.74,13.74,0,0,1,0-27.47h21.36v-7.63H188.7A21.39,21.39,0,0,0,167.34,178.61Z"/><path d="M215.13,168.78v19.65A11.52,11.52,0,0,0,226.6,200h31.2v-7.63H226.6a3.93,3.93,0,0,1-3.9-3.91v-8.05h27.47v-7.63H222.7v-4a3.93,3.93,0,0,1,3.9-3.91h31.2v-7.63H226.6A11.52,11.52,0,0,0,215.13,168.78Z"/><path d="M291.18,180.25a10.12,10.12,0,0,0,3.3-.91,11.56,11.56,0,0,0,6.71-10.5,11.72,11.72,0,0,0-3.35-8.18,11.44,11.44,0,0,0-8.12-3.36h-27V200h7.63V180.38H278a7.56,7.56,0,0,1,6.47,3.66l.18.36,4.09,8,3.91,7.63h8.54l-3.9-7.63Zm-20.81-7.44v-7.88h19.35a3.81,3.81,0,0,1,2.74,1.1,4,4,0,0,1,1.16,2.81,3.86,3.86,0,0,1-2.32,3.54,3.56,3.56,0,0,1-1.58.37Z"/></svg>