<svg id="Layer_1" data-name="Layer 1" xmlns="http://www.w3.org/2000/svg" viewBox="0 0 360 360"><defs><style>.cls-1{fill:#b9cdef;}</style></defs><path class="cls-1" d="M301,157.64l-10.09-.48L326,145.44l-15.72,36.07,1.11-11.9A11,11,0,0,0,301,157.64Z"/><path class="cls-1" d="M43.86,200.15V170.3H36.23v29.12a13.32,13.32,0,0,0,1.4,6,13.59,13.59,0,0,0,6.17,6.23,13.32,13.32,0,0,0,6,1.4H71.45V205.4l-22.4-.06A6.09,6.09,0,0,1,43.86,200.15Z"/><path class="cls-1" d="M95.86,170.24,78,205.34,74.07,213h8.55l3.9-7.63.16-.31H105l.16.31,3.91,7.63h8.54l-3.9-7.63Zm-5,26.64,5-9.85,5,9.85Z"/><polygon class="cls-1" points="155.31 197.47 127.85 176.28 120.22 170.43 120.22 213.03 127.85 213.03 127.85 185.99 155.31 207.17 162.94 213.03 162.94 170.3 155.31 170.24 155.31 197.47"/><path class="cls-1" d="M167.34,191.61A21.38,21.38,0,0,0,188.7,213h21.36v-7.63H188.7a13.74,13.74,0,0,1,0-27.47h21.36v-7.63H188.7A21.39,21.39,0,0,0,167.34,191.61Z"/><path class="cls-1" d="M215.13,181.78v19.65A11.52,11.52,0,0,0,226.6,213h31.2v-7.63H226.6a3.93,3.93,0,0,1-3.9-3.91v-8.05h27.47v-7.63H222.7v-4a3.93,3.93,0,0,1,3.9-3.91h31.2v-7.63H226.6A11.52,11.52,0,0,0,215.13,181.78Z"/><path class="cls-1" d="M291.18,193.25a10.12,10.12,0,0,0,3.3-.91,11.56,11.56,0,0,0,6.71-10.5,11.72,11.72,0,0,0-3.35-8.18,11.44,11.44,0,0,0-8.12-3.36h-27V213h7.63V193.38H278a7.56,7.56,0,0,1,6.47,3.66l.18.36,4.09,8,3.91,7.63h8.54l-3.9-7.63Zm-20.81-7.44v-7.88h19.35a3.81,3.81,0,0,1,2.74,1.1,4,4,0,0,1,1.16,2.81,3.86,3.86,0,0,1-2.32,3.54,3.56,3.56,0,0,1-1.58.37Z"/></svg>